<?xml version="1.0" encoding="UTF-8" standalone="no"?>
<svg
   aria-hidden="true"
   role="img"
   class="iconify iconify--logos"
   width="32"
   height="32"
   preserveAspectRatio="xMidYMid meet"
   viewBox="0 0 256 256"
   version="1.1"
   id="svg2"
   sodipodi:docname="typescript.svg"
   inkscape:version="1.3 (0e150ed6c4, 2023-07-21)"
   xmlns:inkscape="http://www.inkscape.org/namespaces/inkscape"
   xmlns:sodipodi="http://sodipodi.sourceforge.net/DTD/sodipodi-0.dtd"
   xmlns="http://www.w3.org/2000/svg"
   xmlns:svg="http://www.w3.org/2000/svg">
  <defs
     id="defs2" />
  <sodipodi:namedview
     id="namedview2"
     pagecolor="#ffffff"
     bordercolor="#000000"
     borderopacity="0.25"
     inkscape:showpageshadow="2"
     inkscape:pageopacity="0.0"
     inkscape:pagecheckerboard="0"
     inkscape:deskcolor="#d1d1d1"
     inkscape:zoom="26.90625"
     inkscape:cx="16"
     inkscape:cy="15.81417"
     inkscape:window-width="2560"
     inkscape:window-height="1057"
     inkscape:window-x="1912"
     inkscape:window-y="-8"
     inkscape:window-maximized="1"
     inkscape:current-layer="svg2" />
  <path
     fill="#007ACC"
     d="M0 128v128h256V0H0z"
     id="path1" />
  <path
     fill="#FFF"
     d="m56.612 128.85l-.081 10.483h33.32v94.68h23.568v-94.68h33.321v-10.28c0-5.69-.122-10.444-.284-10.566c-.122-.162-20.4-.244-44.983-.203l-44.74.122l-.121 10.443Zm149.955-10.742c6.501 1.625 11.459 4.51 16.01 9.224c2.357 2.52 5.851 7.111 6.136 8.208c.08.325-11.053 7.802-17.798 11.988c-.244.162-1.22-.894-2.317-2.52c-3.291-4.795-6.745-6.867-12.028-7.233c-7.76-.528-12.759 3.535-12.718 10.321c0 1.992.284 3.17 1.097 4.795c1.707 3.536 4.876 5.649 14.832 9.956c18.326 7.883 26.168 13.084 31.045 20.48c5.445 8.249 6.664 21.415 2.966 31.208c-4.063 10.646-14.14 17.879-28.323 20.276c-4.388.772-14.79.65-19.504-.203c-10.28-1.828-20.033-6.908-26.047-13.572c-2.357-2.6-6.949-9.387-6.664-9.874c.122-.163 1.178-.813 2.356-1.504c1.138-.65 5.446-3.129 9.509-5.485l7.355-4.267l1.544 2.276c2.154 3.29 6.867 7.801 9.712 9.305c8.167 4.307 19.383 3.698 24.909-1.26c2.357-2.153 3.332-4.388 3.332-7.68c0-2.966-.366-4.266-1.91-6.501c-1.99-2.845-6.054-5.242-17.595-10.24c-13.206-5.69-18.895-9.224-24.096-14.832c-3.007-3.25-5.852-8.452-7.03-12.8c-.975-3.617-1.22-12.678-.447-16.335c2.723-12.76 12.353-21.659 26.25-24.3c4.51-.853 14.994-.528 19.424.569Z"
     id="path2" />
  <text
     xml:space="preserve"
     style="font-size:106.666px;font-family:Impact;-inkscape-font-specification:Impact;letter-spacing:-1.6px;fill:#000000;stroke-width:8"
     x="26.462254"
     y="234.59233"
     id="text2"><tspan
       sodipodi:role="line"
       id="tspan2"
       style="stroke-width:8"
       x="26.462254"
       y="234.59233">1</tspan></text>
</svg>
